<svg width="13" height="15" viewBox="0 0 13 15" fill="none" xmlns="http://www.w3.org/2000/svg">
<path d="M1.39136 6.47827C0.839073 6.47827 0.391357 6.92599 0.391357 7.47827C0.391357 8.03056 0.839073 8.47827 1.39136 8.47827L1.39136 6.47827ZM12.3159 8.18538C12.7064 7.79485 12.7064 7.16169 12.3159 6.77117L5.95189 0.407204C5.56137 0.0166797 4.92821 0.0166796 4.53768 0.407204C4.14716 0.797728 4.14716 1.43089 4.53768 1.82142L10.1945 7.47827L4.53768 13.1351C4.14716 13.5257 4.14716 14.1588 4.53768 14.5493C4.9282 14.9399 5.56137 14.9399 5.95189 14.5493L12.3159 8.18538ZM1.39136 8.47827L11.6087 8.47827L11.6087 6.47827L1.39136 6.47827L1.39136 8.47827Z" fill="white"/>
</svg>
